HIERARCHY
ROOT Hips
{
	OFFSET 38.623699 -2.995936 98.891197
	CHANNELS 6 Xposition Yposition Zposition Xrotation Yrotation Zrotation
	JOINT spine
	{
		OFFSET 0.000000 -0.477352 8.301041
		CHANNELS 3 Xrotation Yrotation Zrotation
		JOINT spine1
		{
			OFFSET 0.000000 -0.000002 10.456497
			CHANNELS 3 Xrotation Yrotation Zrotation
			JOINT spine2
			{
				OFFSET 0.000000 -0.000002 10.019203
				CHANNELS 3 Xrotation Yrotation Zrotation
				JOINT Neck
				{
					OFFSET 0.000000 -1.226414 25.723495
					CHANNELS 3 Xrotation Yrotation Zrotation
					JOINT Head
					{
						OFFSET 0.000000 -0.000001 7.771744
						CHANNELS 3 Xrotation Yrotation Zrotation
						End Site
						{
							OFFSET 0.000000 6.203937 18.811996
						}
					}
				}
				JOINT RightShoulder
				{
					OFFSET -4.218800 0.587437 10.820007
					CHANNELS 3 Xrotation Yrotation Zrotation
					JOINT RightArm
					{
						OFFSET 0.000000 -0.000002 14.191406
						CHANNELS 3 Xrotation Yrotation Zrotation
						JOINT RightArmRoll
						{
							OFFSET 0.000000 -0.000001 7.164078
							CHANNELS 3 Xrotation Yrotation Zrotation
							JOINT RightForeArm
							{
								OFFSET 0.000000 -0.000003 20.866501
								CHANNELS 3 Xrotation Yrotation Zrotation
								JOINT RightForeArmRoll
								{
									OFFSET 0.000000 -0.000001 8.039215
									CHANNELS 3 Xrotation Yrotation Zrotation
									JOINT RightHand
									{
										OFFSET 0.000000 -0.000003 16.132996
										CHANNELS 3 Xrotation Yrotation Zrotation
										End Site
										{
											OFFSET 0.000000 0.000000 0.100006
										}
									}
								}
							}
						}
					}
				}
				JOINT LeftShoulder
				{
					OFFSET 4.218800 0.587437 10.820007
					CHANNELS 3 Xrotation Yrotation Zrotation
					JOINT LeftArm
					{
						OFFSET 0.000000 -0.000002 14.191406
						CHANNELS 3 Xrotation Yrotation Zrotation
						JOINT LeftArmRoll
						{
							OFFSET 0.000000 -0.000001 7.164078
							CHANNELS 3 Xrotation Yrotation Zrotation
							JOINT LeftForeArm
							{
								OFFSET 0.000000 -0.000003 20.866501
								CHANNELS 3 Xrotation Yrotation Zrotation
								JOINT LeftForeArmRoll
								{
									OFFSET 0.000000 -0.000001 8.039215
									CHANNELS 3 Xrotation Yrotation Zrotation
									JOINT LeftHand
									{
										OFFSET 0.000000 -0.000003 16.132996
										CHANNELS 3 Xrotation Yrotation Zrotation
										End Site
										{
											OFFSET 0.000000 0.000000 0.100006
										}
									}
								}
							}
						}
					}
				}
			}
		}
	}
	JOINT RightUpLeg
	{
		OFFSET -7.357731 1.131820 -1.349213
		CHANNELS 3 Xrotation Yrotation Zrotation
		JOINT RightUpLegRoll
		{
			OFFSET 0.000000 -0.000003 18.916801
			CHANNELS 3 Xrotation Yrotation Zrotation
			JOINT RightLeg
			{
				OFFSET 0.000000 0.000004 -23.425598
				CHANNELS 3 Xrotation Yrotation Zrotation
				JOINT RightLegRoll
				{
					OFFSET 0.000000 -0.000004 23.502304
					CHANNELS 3 Xrotation Yrotation Zrotation
					JOINT RightFoot
					{
						OFFSET 0.000000 -0.000003 19.561707
						CHANNELS 3 Xrotation Yrotation Zrotation
						JOINT RightToeBase
						{
							OFFSET 0.000000 -0.000003 16.352600
							CHANNELS 3 Xrotation Yrotation Zrotation
							End Site
							{
								OFFSET 0.006931 0.912836 7.919434
							}
						}
					}
				}
			}
		}
	}
	JOINT LeftUpLeg
	{
		OFFSET 7.357731 1.131820 -1.349213
		CHANNELS 3 Xrotation Yrotation Zrotation
		JOINT LeftUpLegRoll
		{
			OFFSET 0.000000 -0.000003 18.916901
			CHANNELS 3 Xrotation Yrotation Zrotation
			JOINT LeftLeg
			{
				OFFSET 0.000000 -0.000004 23.425499
				CHANNELS 3 Xrotation Yrotation Zrotation
				JOINT LeftLegRoll
				{
					OFFSET 0.000000 -0.000004 23.719498
					CHANNELS 3 Xrotation Yrotation Zrotation
					JOINT LeftFoot
					{
						OFFSET 0.000000 -0.000003 19.344406
						CHANNELS 3 Xrotation Yrotation Zrotation
						JOINT LeftToeBase
						{
							OFFSET 0.000000 -0.000003 16.352600
							CHANNELS 3 Xrotation Yrotation Zrotation
							End Site
							{
								OFFSET -0.031063 0.912836 7.919434
							}
						}
					}
				}
			}
		}
	}
}
MOTION
Frames: 4
Frame Time: 0.041667
38.363201 -2.443337 98.825592 -3.553414 -0.871621 1.631556 -1.187570 0.000635 0.048264 1.627670 0.001150 0.091521 3.272749 0.002150 0.091915 23.444851 2.901606 -1.975342 -10.440318 -0.834616 -1.814993 -5.022571 -72.394855 -7.095100 -81.152858 -118.222938 -46.959139 -0.000000 -0.000000 0.000001 -0.013997 1.559610 1.382462 0.000001 0.000001 -3.011180 -5.000174 -8.000099 0.000001 10.112799 67.742165 -10.189801 -54.963649 104.972590 36.050275 0.000000 -0.000001 0.000001 6.707034 8.928325 0.159345 -0.000001 -0.000012 3.000001 -5.000200 7.998872 -0.000144 1.529976 -175.865473 1.599395 -179.999991 0.000005 -1.092006 175.053186 -4.399616 -0.595411 -0.000009 -0.000001 0.056144 68.789499 6.886779 2.175584 25.456960 -7.355618 0.000001 1.442926 176.044260 0.837464 -0.000005 -0.000004 -1.167560 -8.474875 3.473755 0.932797 -0.000003 -0.000006 -0.105423 68.351609 -6.924885 -2.075980 25.456959 7.355613 0.000000 
38.361099 -2.448518 98.826393 -3.566808 -0.864427 1.650470 -1.185442 -0.002326 0.048221 1.631940 -0.004386 0.090701 3.277020 -0.003382 0.091144 23.436865 2.884671 -1.980720 -10.432275 -0.819174 -1.821468 -5.113262 -72.330037 -7.189417 -81.226283 -118.268919 -46.844818 -0.000001 -0.000000 -0.000001 -0.015294 1.755330 1.412838 0.000005 -0.000002 -3.012475 -5.000174 -8.000097 -0.000001 10.122601 67.714147 -10.205458 -54.759741 104.993675 35.828492 0.000001 -0.000000 -0.000000 6.678610 8.911531 0.161785 -0.000003 -0.000013 2.999999 -5.000201 7.998872 -0.000144 1.552220 -175.877521 1.594444 -179.999991 0.000005 -1.092006 175.059688 -4.396666 -0.594654 -0.000009 -0.000001 0.056144 68.792245 6.886770 2.175510 25.456960 -7.355619 0.000001 1.453365 176.035271 0.833856 -0.000004 -0.000004 -1.167910 -8.478745 3.468448 0.932754 -0.000003 -0.000006 -0.105423 68.355925 -6.924874 -2.076008 25.456957 7.355613 -0.000001 
38.363098 -2.460861 98.833504 -3.580233 -0.857408 1.669435 -1.183290 -0.005344 0.048159 1.636240 -0.010000 0.089786 3.281320 -0.008992 0.090279 23.427450 2.870684 -1.986455 -10.422542 -0.806613 -1.828134 -5.202971 -72.264078 -7.282597 -81.292372 -118.314804 -46.721687 -0.000000 -0.000000 0.000002 -0.016600 1.952940 1.443308 0.000004 0.000000 -3.013762 -5.000174 -8.000098 -0.000001 10.132131 67.687147 -10.220645 -54.559589 105.015593 35.609242 -0.000001 -0.000001 0.000000 6.648793 8.893693 0.164360 -0.000001 -0.000012 3.000001 -5.000198 7.998870 -0.000144 1.574577 -175.888559 1.589650 -179.999991 0.000005 -1.092006 175.066341 -4.394722 -0.593974 -0.000009 -0.000000 0.056144 68.794888 6.886792 2.175550 25.456960 -7.355620 0.000001 1.463926 176.027294 0.830239 -0.000004 -0.000004 -1.168260 -8.482484 3.463230 0.932687 -0.000003 -0.000006 -0.105423 68.360140 -6.924890 -2.075947 25.456957 7.355613 -0.000000 
38.357899 -2.463976 98.825905 -3.593690 -0.850515 1.688436 -1.181129 -0.008402 0.048083 1.640550 -0.015668 0.088805 3.285630 -0.014656 0.089348 23.416971 2.858755 -1.992433 -10.411611 -0.796066 -1.834957 -5.291777 -72.197388 -7.374738 -81.353687 -118.360621 -46.592627 -0.000001 -0.000001 -0.000000 -0.017919 2.151860 1.473832 0.000002 0.000002 -3.015049 -5.000176 -8.000099 -0.000003 10.141439 67.660790 -10.235461 -54.361418 105.038173 35.391028 -0.000002 0.000001 0.000001 6.618014 8.875124 0.167020 -0.000005 -0.000013 3.000001 -5.000199 7.998872 -0.000143 1.597012 -175.900594 1.584935 -179.999991 0.000005 -1.092006 175.073048 -4.391772 -0.593201 -0.000009 -0.000001 0.056144 68.797729 6.886791 2.175473 25.456957 -7.355618 0.000000 1.474578 176.018305 0.826572 -0.000005 -0.000005 -1.168600 -8.486155 3.458065 0.932603 -0.000003 -0.000006 -0.105423 68.364340 -6.924873 -2.075979 25.456957 7.355613 0.000000 
